<svg width="383" height="9" viewBox="0 0 383 9" fill="none" xmlns="http://www.w3.org/2000/svg">
<path d="M0 5C0 3.34315 1.34315 2 3 2H278C279.657 2 281 3.34315 281 5C281 6.65685 279.657 8 278 8H3C1.34314 8 0 6.65685 0 5Z" fill="#FF00DB"/>
<circle cx="301.5" cy="4.5" r="4.5" fill="#FF00DB"/>
<path d="M319 5C319 3.34315 320.343 2 322 2H380C381.657 2 383 3.34315 383 5C383 6.65685 381.657 8 380 8H322C320.343 8 319 6.65685 319 5Z" fill="#FF00DB"/>
<path d="M319 5C319 3.34315 320.343 2 322 2H380C381.657 2 383 3.34315 383 5C383 6.65685 381.657 8 380 8H322C320.343 8 319 6.65685 319 5Z" fill="#FF00DB"/>
</svg>
