<svg width="124" height="78" viewBox="0 0 124 78" fill="none" xmlns="http://www.w3.org/2000/svg">
<path d="M34.2133 51.4373C27.0644 51.4373 21.4359 45.6995 21.4359 38.6154L21.2742 7.62906C21.2742 5.85536 19.8293 4.42358 18.0394 4.42358H8.87419C7.08427 4.42358 5.6394 5.85536 5.6394 7.62906L5.6394 67.9989C5.6394 70.948 8.05471 73.3414 11.0307 73.3414H45.5351C47.325 73.3414 48.7698 71.9096 48.7698 70.1359V54.6428C48.7698 52.8691 47.325 51.4373 45.5351 51.4373H34.2133Z" fill="white"/>
<path d="M95.8898 15.9099L115.137 15.9099C116.927 15.9099 118.371 14.4781 118.371 12.7044V7.62906C118.371 5.85536 116.927 4.42358 115.137 4.42358L105.864 4.42358L78.4758 4.42358H70.2164C68.3186 4.42358 66.7767 5.95153 66.7767 7.83208V12.683C66.7767 14.4674 68.2431 15.9206 70.0438 15.9206H70.087C73.6452 15.9206 76.7614 18.6345 76.8585 22.1606C76.9555 25.7828 74.0226 28.7425 70.3889 28.7425H69.2028C67.4129 28.7425 65.968 30.1743 65.968 31.948V37.0233C65.968 38.797 67.4129 40.2288 69.2028 40.2288H70.3889C73.9579 40.2288 76.8585 43.103 76.8585 46.6397V57.6986H76.9555C76.9016 58.0085 76.8585 58.3291 76.8585 58.6496V67.9989C76.8585 70.948 79.2738 73.3414 82.2498 73.3414H91.8139H92.2237H115.137C116.927 73.3414 118.371 71.9096 118.371 70.1359V56.2455C118.371 54.4718 116.927 53.04 115.137 53.04H95.8898C92.0511 53.04 88.9889 49.7277 89.4741 45.8277C89.8731 42.5688 92.8275 40.2181 96.1378 40.2181H115.137C116.927 40.2181 118.371 38.7863 118.371 37.0126V31.9373C118.371 30.1636 116.927 28.7318 115.137 28.7318H96.127C92.8167 28.7318 89.8623 26.3811 89.4633 23.1222C88.9889 19.2222 92.0511 15.9099 95.8898 15.9099Z" fill="white"/>
</svg>
