<svg width="379" height="71" viewBox="0 0 379 71" fill="none" xmlns="http://www.w3.org/2000/svg">
<path d="M266.82 19.9368H280.731V12.5668H272.706H263.009C258.078 12.5668 254.087 16.5261 254.087 21.4054V39.6531V44.6453V46.7541H254.147C254.109 46.9532 254.087 47.1576 254.087 47.3674V56.7978H263.687H263.953H274.46C277.93 56.7978 280.737 54.0112 280.737 50.579V43.7685H266.82C263.742 43.7685 261.45 40.4546 263.372 37.2322C264.013 36.1617 265.208 35.5377 266.462 35.5377H280.731V33.0146C280.731 30.3356 278.538 28.1622 275.834 28.1622H266.462C265.208 28.1622 264.013 27.5382 263.372 26.4676C261.45 23.256 263.742 19.9368 266.82 19.9368Z" fill="#7CBBE8"/>
<path d="M337.902 42.1062V24.106C337.902 16.5315 344.097 10.3934 351.742 10.3934C359.388 10.3934 365.583 16.5315 365.583 24.106V42.1062C365.583 49.6806 359.388 55.8188 351.742 55.8188C344.103 55.8188 337.902 49.6806 337.902 42.1062Z" fill="#7CBBE8"/>
<path d="M75.9359 29.3242C68.1495 29.3242 61.8401 35.5753 61.8401 43.2897C61.8401 51.004 68.1495 57.2551 75.9359 57.2551C83.7222 57.2551 90.0316 51.004 90.0316 43.2897C90.0316 35.5753 83.7222 29.3242 75.9359 29.3242ZM75.9359 51.6818C71.2554 51.6818 67.4654 47.9215 67.4654 43.2897C67.4654 38.6578 71.2608 34.8975 75.9359 34.8975C80.6163 34.8975 84.4063 38.6578 84.4063 43.2897C84.4063 47.9215 80.6163 51.6818 75.9359 51.6818Z" fill="#E940FF"/>
<path d="M49.3407 38.5502C49.3407 33.2298 53.4565 28.867 58.7071 28.4097V22.4437C50.1606 22.4437 43.2322 29.3081 43.2322 37.7756V57.2175H49.3407V38.5502Z" fill="#E940FF"/>
<path d="M102.688 29.3995V48.0667C102.688 53.3872 98.5726 57.75 93.322 58.2073V64.1733C101.869 64.1733 108.797 57.3089 108.797 48.8414V29.3995H102.688Z" fill="#E940FF"/>
<path d="M105.409 25.3056C107.751 25.3056 109.649 23.4246 109.649 21.1042C109.649 18.7838 107.751 16.9027 105.409 16.9027C103.067 16.9027 101.168 18.7838 101.168 21.1042C101.168 23.4246 103.067 25.3056 105.409 25.3056Z" fill="#E940FF"/>
<path d="M203.58 36.3016C205.922 36.3016 207.82 34.4205 207.82 32.1001C207.82 29.7797 205.922 27.8986 203.58 27.8986C201.237 27.8986 199.339 29.7797 199.339 32.1001C199.339 34.4205 201.237 36.3016 203.58 36.3016Z" fill="#E940FF"/>
<path d="M203.58 57.7554C205.922 57.7554 207.82 55.8744 207.82 53.554C207.82 51.2335 205.922 49.3525 203.58 49.3525C201.237 49.3525 199.339 51.2335 199.339 53.554C199.339 55.8744 201.237 57.7554 203.58 57.7554Z" fill="#E940FF"/>
<path d="M181.214 41.2024V34.9459H190.309V29.378H181.214V23.7886H175.106V41.9717C175.106 50.4392 182.034 57.3035 190.581 57.3035V51.3429C185.33 50.8803 181.214 46.5228 181.214 41.2024Z" fill="#E940FF"/>
<path d="M139.345 34.9459V29.378H131.472V29.3726C123.685 29.3726 117.376 35.6237 117.376 43.3381C117.376 51.0524 123.685 57.3035 131.472 57.3035H139.345V51.7356H131.472V51.7303C127.758 51.7303 124.614 49.3579 123.468 46.0655H136.842V40.503H123.512C124.69 37.2645 127.807 34.9459 131.477 34.9459H139.345Z" fill="#E940FF"/>
<path d="M166.896 34.9459V29.378H159.023V29.3726C151.236 29.3726 144.927 35.6237 144.927 43.3381C144.927 51.0524 151.236 57.3035 159.023 57.3035H166.896V51.7356H159.023V51.7303C154.342 51.7303 150.552 47.9699 150.552 43.3381C150.552 38.7062 154.347 34.9459 159.023 34.9459H166.896Z" fill="#E940FF"/>
<path d="M23.9346 11.7544H11.6741V17.3223H23.94V17.3277C28.6205 17.3277 32.4105 21.088 32.4105 25.7199C32.4105 30.3517 28.615 34.1121 23.94 34.1121H17.6469H16.0668H13.732C12.5971 34.1121 11.6741 35.0266 11.6741 36.1509V57.239H17.6469V39.68H23.94V39.6853C31.7263 39.6853 38.0358 33.4342 38.0358 25.7199C38.0358 18.0055 31.7209 11.7544 23.9346 11.7544Z" fill="#E940FF"/>
<path d="M334.242 29.5394C332.89 29.5394 331.799 28.4581 331.799 27.1186V22.32C331.799 17.2094 327.618 13.0617 322.454 13.0617C317.29 13.0617 313.109 17.204 313.109 22.32V27.1078C313.109 28.4473 312.018 29.5286 310.666 29.5286C309.314 29.5286 308.223 28.4473 308.223 27.1078V22.32C308.223 17.2094 304.042 13.0617 298.878 13.0617C293.714 13.0617 289.533 17.204 289.533 22.32V53.3818C289.533 55.27 291.075 56.7978 292.981 56.7978H292.987C294.892 56.7978 296.434 55.27 296.434 53.3818V22.32C296.434 20.9805 297.526 19.8992 298.878 19.8992C300.23 19.8992 301.321 20.9805 301.321 22.32V27.1078C301.321 32.2184 305.502 36.3661 310.666 36.3661C315.83 36.3661 320.011 32.2238 320.011 27.1078V22.32C320.011 20.9805 321.102 19.8992 322.454 19.8992C323.806 19.8992 324.897 20.9805 324.897 22.32V27.1186C324.897 32.2292 329.078 36.3769 334.242 36.3769H346.459V29.5394H334.242Z" fill="#1466BA"/>
<path d="M351.476 40.9926C355.873 40.9926 359.436 37.4617 359.436 33.1061C359.436 28.7505 355.873 25.2196 351.476 25.2196C347.08 25.2196 343.516 28.7505 343.516 33.1061C343.516 37.4617 347.08 40.9926 351.476 40.9926Z" fill="#DF3FF4"/>
<path d="M246.035 42.7409H238.461C233.872 42.7409 230.256 39.0559 230.256 34.5102L230.153 15.0414V12.5668H228.073H226.797H225.586C222.567 12.5668 220.119 14.993 220.119 17.984V42.8216C220.119 50.5414 226.433 56.7978 234.225 56.7978H247.805V44.4947C247.805 43.5264 247.012 42.7409 246.035 42.7409Z" fill="#7CBBE8"/>
</svg>
