<?xml version="1.0" encoding="utf-8"?>
<!-- Generator: Adobe Adobe Illustrator 24.2.0, SVG Export Plug-In . SVG Version: 6.00 Build 0)  -->
<svg version="1.1" xmlns="http://www.w3.org/2000/svg" xmlns:xlink="http://www.w3.org/1999/xlink" x="0px" y="0px" width="222px"
	 height="222px" viewBox="0 0 222 222" style="enable-background:new 0 0 222 222;" xml:space="preserve">
<style type="text/css">
	.st0{opacity:0.4314;fill:#B59E9E;}
	.st1{fill:#B59E9E;}
	.st2{opacity:0.3686;fill:#B59E9E;}
	.st3{opacity:0.3412;fill:#B59E9E;}
	.st4{opacity:0.451;fill:#B59E9E;}
	.st5{opacity:0.451;}
	.st6{fill:#FFD1F2;}
	.st7{fill:#FFFFFF;}
	.st8{fill:#FF82AA;}
	.st9{fill:#FF5CDC;}
	.st10{fill:#FFBDF1;}
	.st11{fill:#D9D9D9;}
	.st12{fill:none;stroke:#8F8F8F;stroke-miterlimit:10;}
	.st13{fill:#C5D9E3;}
</style>
<g id="レイヤー_1">
</g>
<g id="レイヤー_2">
	<g>
		<g>
			<path d="M190.44,120.43c-24.82-44.49-44.31-29.42-24.15-62.45c5.36-8.77-29.17-15.16-62.46-13.33c-1.08-0.13-3.3-0.74-4.02-3.54
				c0,0-0.01,0-0.01,0c-2.22-8.77-5.49-17.27-9.76-25.25c-0.83-1.55-1.73-3.12-3.13-4.17c-1.4-1.06-3.43-1.47-4.92-0.54
				c-1.34,0.84-1.91,2.57-1.83,4.15c0.08,1.58,0.7,3.08,1.26,4.56c2.8,7.39,4.3,15.27,4.45,23.17c-0.17,3.43-3.5,4.14-3.5,4.14
				c0,0,0,0,0,0c-53.45,10.95-61.12,62.17-38.37,92.72c12.52,16.81,37.91,24.55-2.34,41.69c-11.45,4.88,23.93,48.27,95.78,39.05
				C176.8,215.59,219.55,172.61,190.44,120.43z"/>
		</g>
		
			<ellipse transform="matrix(0.7674 -0.6411 0.6411 0.7674 -39.4798 64.2443)" class="st10" cx="68.82" cy="86.54" rx="6.91" ry="6.8"/>
		
			<ellipse transform="matrix(0.9903 -0.139 0.139 0.9903 -0.6795 11.5559)" class="st9" cx="82.39" cy="10.64" rx="10.77" ry="10.56"/>
		
			<ellipse transform="matrix(0.6521 -0.7582 0.7582 0.6521 -20.921 122.5575)" class="st10" cx="123.07" cy="84.07" rx="6.8" ry="6.91"/>
	</g>
</g>
</svg>
